{
  "accessors": [
    {
      "bufferView": 2,
      "componentType": 5126,
      "count": 8144,
      "max": [
        0.464695006608963,
        0.43859800696372986,
        0.588653028011322
      ],
      "min": [
        -0.3690429925918579,
        -0.14757700264453888,
        -0.6530240178108215
      ],
      "type": "VEC3"
    },
    {
      "bufferView": 2,
      "byteOffset": 97728,
      "componentType": 5126,
      "count": 8144,
      "max": [
        0.9999508857727051,
        0.9999669790267944,
        0.9998786449432373
      ],
      "min": [
        -0.9999229907989502,
        -0.9999980926513672,
        -0.9972732663154602
      ],
      "type": "VEC3"
    },
    {
      "bufferView": 3,
      "componentType": 5126,
      "count": 8144,
      "max": [
        1.0,
        0.9999986290931702,
        0.9999992847442627,
        1.0
      ],
      "min": [
        -0.9953173398971558,
        -0.9999869465827942,
        -0.9999992251396179,
        -1.0
      ],
      "type": "VEC4"
    },
    {
      "bufferView": 1,
      "componentType": 5126,
      "count": 8144,
      "max": [
        0.9820259809494019,
        0.852200984954834
      ],
      "min": [
        0.035117100924253464,
        0.012405299581587315
      ],
      "type": "VEC2"
    },
    {
      "bufferView": 0,
      "componentType": 5125,
      "count": 39120,
      "type": "SCALAR"
    },
    {
      "bufferView": 2,
      "byteOffset": 195456,
      "componentType": 5126,
      "count": 793,
      "max": [
        1.0,
        -0.09748289734125137,
        0.9932339787483215
      ],
      "min": [
        -1.0,
        -0.5590220093727112,
        -0.9932330250740051
      ],
      "type": "VEC3"
    },
    {
      "bufferView": 2,
      "byteOffset": 204972,
      "componentType": 5126,
      "count": 793,
      "max": [
        1.0,
        1.0,
        1.0
      ],
      "min": [
        -1.0,
        -1.0,
        -1.0
      ],
      "type": "VEC3"
    },
    {
      "bufferView": 3,
      "byteOffset": 130304,
      "componentType": 5126,
      "count": 793,
      "max": [
        1.0,
        1.0,
        1.0,
        1.0
      ],
      "min": [
        -1.0,
        -1.0,
        -1.0,
        -1.0
      ],
      "type": "VEC4"
    },
    {
      "bufferView": 1,
      "byteOffset": 65152,
      "componentType": 5126,
      "count": 793,
      "max": [
        0.9745100140571594,
        0.9924740195274353
      ],
      "min": [
        0.11785600334405899,
        0.7111849784851074
      ],
      "type": "VEC2"
    },
    {
      "bufferView": 0,
      "byteOffset": 156480,
      "componentType": 5125,
      "count": 3048,
      "type": "SCALAR"
    },
    {
      "bufferView": 2,
      "byteOffset": 214488,
      "componentType": 5126,
      "count": 264,
      "max": [
        0.3445500135421753,
        0.5590220093727112,
        0.7338860034942627
      ],
      "min": [
        0.14227700233459473,
        -0.10253199934959412,
        -0.4316059947013855
      ],
      "type": "VEC3"
    },
    {
      "bufferView": 2,
      "byteOffset": 217656,
      "componentType": 5126,
      "count": 264,
      "max": [
        0.9958141446113586,
        0.8798587322235107,
        0.9192209839820862
      ],
      "min": [
        -0.9963781237602234,
        -0.9862898588180542,
        -0.9946981072425842
      ],
      "type": "VEC3"
    },
    {
      "bufferView": 3,
      "byteOffset": 142992,
      "componentType": 5126,
      "count": 264,
      "max": [
        0.8963384628295898,
        0.9926960468292236,
        0.3509160280227661,
        1.0
      ],
      "min": [
        -0.827598512172699,
        -0.9792376756668091,
        -0.9906230568885803,
        1.0
      ],
      "type": "VEC4"
    },
    {
      "bufferView": 1,
      "byteOffset": 71496,
      "componentType": 5126,
      "count": 264,
      "max": [
        0.5520920157432556,
        0.8233460187911987
      ],
      "min": [
        0.02259019948542118,
        0.6658470034599304
      ],
      "type": "VEC2"
    },
    {
      "bufferView": 0,
      "byteOffset": 168672,
      "componentType": 5125,
      "count": 948,
      "type": "SCALAR"
    }
  ],
  "asset": {
    "extras": {
      "author": "liless (https://sketchfab.com/liless)",
      "license": "CC-BY-4.0 (http://creativecommons.org/licenses/by/4.0/)",
      "source": "https://sketchfab.com/3d-models/writing-award-04002513c1f349ce9006fbf05745d33e",
      "title": "Writing Award"
    },
    "generator": "Sketchfab-12.67.0",
    "version": "2.0"
  },
  "bufferViews": [
    {
      "buffer": 0,
      "byteLength": 172464,
      "name": "floatBufferViews",
      "target": 34963
    },
    {
      "buffer": 0,
      "byteLength": 73608,
      "byteOffset": 172464,
      "byteStride": 8,
      "name": "floatBufferViews",
      "target": 34962
    },
    {
      "buffer": 0,
      "byteLength": 220824,
      "byteOffset": 246072,
      "byteStride": 12,
      "name": "floatBufferViews",
      "target": 34962
    },
    {
      "buffer": 0,
      "byteLength": 147216,
      "byteOffset": 466896,
      "byteStride": 16,
      "name": "floatBufferViews",
      "target": 34962
    }
  ],
  "buffers": [
    {
      "byteLength": 614112,
      "uri": "scene.bin"
    }
  ],
  "images": [
    {
      "uri": "textures/lambert1_baseColor.jpeg"
    },
    {
      "uri": "textures/lambert1_metallicRoughness.png"
    },
    {
      "uri": "textures/lambert1_normal.png"
    }
  ],
  "materials": [
    {
      "doubleSided": true,
      "name": "lambert1",
      "normalTexture": {
        "index": 2
      },
      "occlusionTexture": {
        "index": 1
      },
      "pbrMetallicRoughness": {
        "baseColorTexture": {
          "index": 0
        },
        "metallicRoughnessTexture": {
          "index": 1
        }
      }
    }
  ],
  "meshes": [
    {
      "name": "defaultMaterial",
      "primitives": [
        {
          "attributes": {
            "NORMAL": 1,
            "POSITION": 0,
            "TANGENT": 2,
            "TEXCOORD_0": 3
          },
          "indices": 4,
          "material": 0,
          "mode": 4
        }
      ]
    },
    {
      "name": "defaultMaterial",
      "primitives": [
        {
          "attributes": {
            "NORMAL": 6,
            "POSITION": 5,
            "TANGENT": 7,
            "TEXCOORD_0": 8
          },
          "indices": 9,
          "material": 0,
          "mode": 4
        }
      ]
    },
    {
      "name": "defaultMaterial",
      "primitives": [
        {
          "attributes": {
            "NORMAL": 11,
            "POSITION": 10,
            "TANGENT": 12,
            "TEXCOORD_0": 13
          },
          "indices": 14,
          "material": 0,
          "mode": 4
        }
      ]
    }
  ],
  "nodes": [
    {
      "children": [
        1
      ],
      "matrix": [
        1.0,
        0.0,
        0.0,
        0.0,
        0.0,
        2.220446049250313e-16,
        -1.0,
        0.0,
        0.0,
        1.0,
        2.220446049250313e-16,
        0.0,
        0.0,
        0.0,
        0.0,
        1.0
      ],
      "name": "Sketchfab_model"
    },
    {
      "children": [
        2,
        4,
        6
      ],
      "matrix": [
        1.0,
        0.0,
        0.0,
        0.0,
        0.0,
        -4.371139006309477e-08,
        0.999999999999999,
        0.0,
        0.0,
        -0.999999999999999,
        -4.371139006309477e-08,
        0.0,
        0.0,
        0.0,
        0.0,
        1.0
      ],
      "name": "Collada visual scene group"
    },
    {
      "children": [
        3
      ],
      "name": "polySurface3"
    },
    {
      "mesh": 0,
      "name": "defaultMaterial"
    },
    {
      "children": [
        5
      ],
      "name": "polySurface2"
    },
    {
      "mesh": 1,
      "name": "defaultMaterial"
    },
    {
      "children": [
        7
      ],
      "name": "polySurface1"
    },
    {
      "mesh": 2,
      "name": "defaultMaterial"
    }
  ],
  "samplers": [
    {
      "magFilter": 9729,
      "minFilter": 9987,
      "wrapS": 10497,
      "wrapT": 10497
    }
  ],
  "scene": 0,
  "scenes": [
    {
      "name": "Sketchfab_Scene",
      "nodes": [
        0
      ]
    }
  ],
  "textures": [
    {
      "sampler": 0,
      "source": 0
    },
    {
      "sampler": 0,
      "source": 1
    },
    {
      "sampler": 0,
      "source": 2
    }
  ]
}
